<svg xmlns="http://www.w3.org/2000/svg" viewBox="0 0 544.7 211.44"><defs><style>.cls-1{fill:#0098d8;}.cls-2{fill:#485157;}</style></defs><g id="레이어_2" data-name="레이어 2"><g id="레이어_1-2" data-name="레이어 1"><path class="cls-1" d="M473.1,0V22.29a52.82,52.82,0,0,1-105.63,0V0H352.82V22.29a67.47,67.47,0,0,0,134.93,0V14h42.3V130.69H14.65V14h43A43,43,0,0,0,57,22.29a67.46,67.46,0,0,0,134.92,0v-.94h-68.4v14h51.94c-5.58,23.54-27,39.76-51,39.76A52.87,52.87,0,0,1,71.6,22.29,52.33,52.33,0,0,1,76,1.31L76.52,0H0V144.67H544.7V0Z"/><rect class="cls-1" x="209.35" width="14.65" height="87.15"/><polygon class="cls-1" points="332.03 87.16 332.03 0 317.38 0 317.38 64.74 252.64 0 231.92 0 319.08 87.16 332.03 87.16"/><path class="cls-2" d="M35.82,211.43H31.38l3.22-8.33-7.33-19h4.58l5.08,13.55L42,184.1h4.61Z"/><path class="cls-2" d="M56.69,184a9.19,9.19,0,0,1,8,5,11,11,0,0,1,.82,6H51.72a5.15,5.15,0,0,0,9.08,1.76l3.75,1.61A9.26,9.26,0,1,1,56.69,184Zm0,4a5.62,5.62,0,0,0-5,3.41h9.8A5.33,5.33,0,0,0,56.69,188Z"/><path class="cls-2" d="M77.42,184a9.4,9.4,0,1,1-9,9.39A9.18,9.18,0,0,1,77.42,184Zm5,9.39a5.05,5.05,0,1,0-5,5.42A5.2,5.2,0,0,0,82.46,193.39Z"/><path class="cls-2" d="M98.16,188.22a4.34,4.34,0,0,0-4.54,4.4v10H89.36V184.1h4.26v2.61a5.66,5.66,0,0,1,5-2.61c4.36,0,8.33,2.5,8.33,7.88v10.66h-4.26v-10C102.66,190.08,101.27,188.22,98.16,188.22Z"/><path class="cls-2" d="M118.86,184.07a6.68,6.68,0,0,1,5.61,2.85v-3h4.29v17.62c0,6.27-4.86,9.71-10.12,9.71a10.16,10.16,0,0,1-8.29-4.18l3.61-2.39a5.76,5.76,0,0,0,4.68,2.49c2.15,0,5.8-1.44,5.83-5.1v-2.32a7,7,0,0,1-5.61,3,9.36,9.36,0,0,1,0-18.71Zm5.29,9.28a5,5,0,1,0-5,5.35A5.14,5.14,0,0,0,124.15,193.35Z"/><path class="cls-2" d="M141.72,188.68a4.32,4.32,0,0,0-3-.67c-.82.07-1.4.21-1.72.67s-.14.7.11.91c.1.18.18.28.64.53a4.24,4.24,0,0,0,1.32.63l1.15.35c3.25.88,4.57,1.76,5.36,2.61a4.9,4.9,0,0,1,.72,5.62,6.52,6.52,0,0,1-2.76,2.5,9.12,9.12,0,0,1-2.93.81,9.37,9.37,0,0,1-5.79-1.37,8,8,0,0,1-3-3.45l3.94-2a4,4,0,0,0,1.39,1.69,4.39,4.39,0,0,0,3.11.74,2.72,2.72,0,0,0,1.18-.32c.61-.31.75-.42.89-.7s.18-.35-.07-.63-.75-.67-3.29-1.31l-1.18-.38a8.13,8.13,0,0,1-2.36-1.09,7.8,7.8,0,0,1-1.71-1.37,5.53,5.53,0,0,1-.75-5.67,6.5,6.5,0,0,1,5.29-3.16,9.52,9.52,0,0,1,5.86,1.37,7.86,7.86,0,0,1,2.36,2.39l-3.79,2.25A2.84,2.84,0,0,0,141.72,188.68Z"/><path class="cls-2" d="M158,184.21a7,7,0,0,1,5.62,2.88v-3h4.29v18.54h-4.29V200a7,7,0,0,1-5.62,2.92,9.36,9.36,0,0,1,0-18.71Zm5.4,9.36a5.05,5.05,0,1,0-10.08,0,5,5,0,1,0,10.08,0Z"/><path class="cls-2" d="M180.86,188.22a4.34,4.34,0,0,0-4.54,4.4v10h-4.26V184.1h4.26v2.61a5.67,5.67,0,0,1,5-2.61c4.36,0,8.33,2.5,8.33,7.88v10.66h-4.26v-10C185.36,190.08,184,188.22,180.86,188.22Z"/><path class="cls-2" d="M201.56,184.07a6.68,6.68,0,0,1,5.61,2.85v-3h4.29v17.62c0,6.27-4.86,9.71-10.11,9.71a10.16,10.16,0,0,1-8.3-4.18l3.61-2.39a5.76,5.76,0,0,0,4.69,2.49c2.14,0,5.79-1.44,5.82-5.1v-2.32a7,7,0,0,1-5.61,3,9.36,9.36,0,0,1,0-18.71Zm5.29,9.28a5,5,0,1,0-5,5.35A5.14,5.14,0,0,0,206.85,193.35Z"/><path class="cls-2" d="M13.57,188.26v4h8c-.92,4.36-5.17,6.3-8.16,6.4a9.09,9.09,0,0,1,0-18.18,8.82,8.82,0,0,1,6.63,3.06l3.07-3a12.65,12.65,0,0,0-9.7-4.29,13.35,13.35,0,0,0,0,26.7,12.63,12.63,0,0,0,12.7-11.36,24.23,24.23,0,0,0,0-3.34Z"/><path class="cls-2" d="M248.94,202.68h-5.49L229.1,182.34v20.34h-4.29V176.5h5.35l14.56,20.3V176.5h4.22Z"/><path class="cls-2" d="M261.14,184.21a6.86,6.86,0,0,1,5.53,2.88v-3h4.22v18.54h-4.22V200a6.8,6.8,0,0,1-5.53,2.92c-4.92,0-8.83-4.32-8.83-9.35S256.22,184.21,261.14,184.21Zm5.32,9.36a5.25,5.25,0,0,0-5-5.39,5.38,5.38,0,1,0,5,5.39Z"/><path class="cls-2" d="M282.49,202.84a6.13,6.13,0,0,1-5.84-6v-9.18h-3.2v-4.08h3.2v-6.05H281v6.05h4.89v4.08H281v9.18c0,1.13.53,1.65,1.48,1.65.49,0,.67-.1,1.16-.6l3,3.17A6.06,6.06,0,0,1,282.49,202.84Z"/><path class="cls-2" d="M294,175.13v4.29h-4.29v-4.29ZM289.84,184H294v18.79h-4.11Z"/><path class="cls-2" d="M306.13,184c5,0,8.83,4.32,8.83,9.39s-3.83,9.39-8.83,9.39-8.83-4.32-8.83-9.39S301.17,184,306.13,184Zm5,9.39a5,5,0,1,0-5,5.42A5.17,5.17,0,0,0,311.09,193.39Z"/><path class="cls-2" d="M326.63,188.22a4.31,4.31,0,0,0-4.47,4.4v10H318V184.1h4.18v2.61a5.55,5.55,0,0,1,4.89-2.61c4.29,0,8.2,2.5,8.2,7.88v10.66h-4.19v-10C331.06,190.08,329.69,188.22,326.63,188.22Z"/><path class="cls-2" d="M347,184.21a6.86,6.86,0,0,1,5.53,2.88v-3h4.22v18.54h-4.22V200a6.8,6.8,0,0,1-5.53,2.92c-4.92,0-8.82-4.32-8.82-9.35S342.07,184.21,347,184.21Zm5.32,9.36a5.25,5.25,0,0,0-5-5.39,5.38,5.38,0,1,0,5,5.39Z"/><path class="cls-2" d="M364.75,175.77v27h-4.19v-27Z"/><path class="cls-2" d="M391.65,203.41a10.58,10.58,0,0,1-10.52-10.66V177h4.26v15.65a6.26,6.26,0,0,0,6.26,6.48,6.36,6.36,0,0,0,6.22-6.48V177h4.26v15.76A10.75,10.75,0,0,1,391.65,203.41Z"/><path class="cls-2" d="M414.83,188.7a4.31,4.31,0,0,0-4.47,4.4v10h-4.18V184.59h4.18v2.6a5.54,5.54,0,0,1,4.89-2.6c4.29,0,8.2,2.5,8.2,7.88v10.66h-4.19v-10C419.26,190.57,417.89,188.7,414.83,188.7Z"/><path class="cls-2" d="M431.64,175.62v4.29h-4.29v-4.29Zm-4.18,8.83h4.11v18.78h-4.11Z"/><path class="cls-2" d="M445.82,203.13h-3.7l-7.81-18.54h4.61l5.14,13,5.14-13h4.6Z"/><path class="cls-2" d="M462.92,184.48c5.41,0,7.77,4.86,7.84,5a11.16,11.16,0,0,1,.81,6H458a5,5,0,0,0,8.93,1.76l3.69,1.62a9.17,9.17,0,1,1-7.73-14.39Zm0,4A5.55,5.55,0,0,0,458,191.9h9.64A5.24,5.24,0,0,0,462.92,188.49Z"/><path class="cls-2" d="M484.71,184v4a5.63,5.63,0,0,0-5.53,5.39v9.95H475V184h4.18v3.34A6.71,6.71,0,0,1,484.71,184Z"/><path class="cls-2" d="M495.46,189.16a4.23,4.23,0,0,0-2.95-.67c-.81.07-1.37.21-1.69.67s-.14.7.1.92.18.28.64.52a4.45,4.45,0,0,0,1.3.64l1.12.35c3.21.88,4.51,1.76,5.28,2.6a5,5,0,0,1,.7,5.63,6.45,6.45,0,0,1-2.71,2.5,8.84,8.84,0,0,1-2.88.81,9.19,9.19,0,0,1-5.7-1.38,8.07,8.07,0,0,1-2.92-3.44l3.87-2A4.09,4.09,0,0,0,491,198a4.23,4.23,0,0,0,3.06.73,2.59,2.59,0,0,0,1.16-.31c.6-.32.74-.42.88-.71s.18-.35-.06-.63-.74-.67-3.24-1.3l-1.16-.39a8,8,0,0,1-2.33-1.09,7.5,7.5,0,0,1-1.68-1.37,5.57,5.57,0,0,1-.74-5.66,6.39,6.39,0,0,1,5.2-3.17,9.25,9.25,0,0,1,5.77,1.37,7.83,7.83,0,0,1,2.33,2.39l-3.73,2.26A2.91,2.91,0,0,0,495.46,189.16Z"/><path class="cls-2" d="M508,175.62v4.29h-4.29v-4.29Zm-4.18,8.83h4.11v18.78h-4.11Z"/><path class="cls-2" d="M520,203.32a6.11,6.11,0,0,1-5.83-6v-9.18H511V184h3.21v-6h4.36v6h4.89v4.08h-4.89v9.18c0,1.13.53,1.66,1.47,1.66.5,0,.67-.11,1.16-.6l3,3.17A6.11,6.11,0,0,1,520,203.32Z"/><path class="cls-2" d="M533.73,211.44h-4.36l3.17-8.34-7.22-19h4.51l5,13.55,5-13.55h4.54Z"/></g></g></svg>